<?xml version="1.0" encoding="utf-8"?>
<!-- created with dmn-js / http://bpmn.io -->
<!DOCTYPE svg PUBLIC "-//W3C//DTD SVG 1.1//EN" "http://www.w3.org/Graphics/SVG/1.1/DTD/svg11.dtd">
<svg xmlns="http://www.w3.org/2000/svg" xmlns:xlink="http://www.w3.org/1999/xlink" width="525" height="332" viewBox="142 75 525 332" version="1.1"><defs><pattern id="djs-grid-pattern-804056" width="10" height="10" patternUnits="userSpaceOnUse"><circle cx="0.5" cy="0.5" r="0.5" style="fill: rgb(204, 204, 204);"></circle></pattern><marker id="information-requirement-end-white-hsl_225_10_15_-3nqzhioty627fp7ti78c3nt54" viewBox="0 0 20 20" refX="11" refY="10" markerWidth="20" markerHeight="20" orient="auto"><path d="M 1 5 L 11 10 L 1 15 Z" style="stroke-width: 1px; stroke-linecap: round; stroke-dasharray: 10000, 1; fill: rgb(34, 36, 42); stroke: none;"></path></marker></defs><g class="djs-group"><g class="djs-element djs-shape" data-element-id="decision_04ysjqh" style="display: block;" transform="matrix(1 0 0 1 210 240)"><g class="djs-visual"><rect x="0" y="0" width="180" height="80" rx="0" ry="0" style="stroke: rgb(34, 36, 42); stroke-width: 2px; fill: white;"/><text lineHeight="1.2" class="djs-label" style="font-family: Arial, sans-serif; font-size: 12px; font-weight: normal; fill: rgb(34, 36, 42);"><tspan x="62.99479103088379" y="43.599999999999994">Risk class</tspan></text></g><rect class="djs-hit djs-hit-all" x="0" y="0" width="180" height="80" style="fill: none; stroke-opacity: 0; stroke: white; stroke-width: 15px;"/><rect x="-5" y="-5" rx="4" width="190" height="90" class="djs-outline" style="fill: none;"/></g></g><g class="djs-group"><g class="djs-element djs-shape" data-element-id="InputData_0r4b7f7" style="display: block;" transform="matrix(1 0 0 1 147 357)"><g class="djs-visual"><rect x="0" y="0" width="125" height="45" rx="22" ry="22" style="stroke: rgb(34, 36, 42); stroke-width: 2px; fill: white;"/><text lineHeight="1.2" class="djs-label" style="font-family: Arial, sans-serif; font-size: 12px; font-weight: normal; fill: rgb(34, 36, 42);"><tspan x="29.151039123535156" y="26.1">Credit Score</tspan></text></g><rect class="djs-hit djs-hit-all" x="0" y="0" width="125" height="45" style="fill: none; stroke-opacity: 0; stroke: white; stroke-width: 15px;"/><rect x="-5" y="-5" rx="27" width="135" height="55" class="djs-outline" style="fill: none;"/></g></g><g class="djs-group"><g class="djs-element djs-shape" data-element-id="InputData_0g7g43p" style="display: block;" transform="matrix(1 0 0 1 537 357)"><g class="djs-visual"><rect x="0" y="0" width="125" height="45" rx="22" ry="22" style="stroke: rgb(34, 36, 42); stroke-width: 2px; fill: white;"/><text lineHeight="1.2" class="djs-label" style="font-family: Arial, sans-serif; font-size: 12px; font-weight: normal; fill: rgb(34, 36, 42);"><tspan x="38.37858009338379" y="26.1">Turnover</tspan></text></g><rect class="djs-hit djs-hit-all" x="0" y="0" width="125" height="45" style="fill: none; stroke-opacity: 0; stroke: white; stroke-width: 15px;"/><rect x="-5" y="-5" rx="27" width="135" height="55" class="djs-outline" style="fill: none;"/></g></g><g class="djs-group"><g class="djs-element djs-shape" data-element-id="Decision_03kl7rv" style="display: block;" transform="matrix(1 0 0 1 430 80)"><g class="djs-visual"><rect x="0" y="0" width="180" height="80" rx="0" ry="0" style="stroke: rgb(34, 36, 42); stroke-width: 2px; fill: white;"/><text lineHeight="1.2" class="djs-label" style="font-family: Arial, sans-serif; font-size: 12px; font-weight: normal; fill: rgb(34, 36, 42);"><tspan x="59.3271484375" y="43.599999999999994">Credit Limit</tspan></text></g><rect class="djs-hit djs-hit-all" x="0" y="0" width="180" height="80" style="fill: none; stroke-opacity: 0; stroke: white; stroke-width: 15px;"/><rect x="-5" y="-5" rx="4" width="190" height="90" class="djs-outline" style="fill: none;"/></g></g><g class="djs-group"><g class="djs-element djs-connection" data-element-id="InformationRequirement_0kipncu" style="display: block;"><g class="djs-visual"><path style="fill: none; stroke: rgb(34, 36, 42); stroke-width: 1px; stroke-linecap: round; stroke-linejoin: round; marker-end: url('#information-requirement-end-white-hsl_225_10_15_-3nqzhioty627fp7ti78c3nt54');" d="M210,357L300,340L300,320"/></g><path d="M210,357L300,340L300,320" class="djs-hit djs-hit-stroke" style="fill: none; stroke-opacity: 0; stroke: white; stroke-width: 15px;"/><rect x="205" y="315" rx="4" width="100" height="47" class="djs-outline" style="fill: none;"/></g></g><g class="djs-group"><g class="djs-element djs-connection" data-element-id="InformationRequirement_0g1puu2" style="display: block;"><g class="djs-visual"><path style="fill: none; stroke: rgb(34, 36, 42); stroke-width: 1px; stroke-linecap: round; stroke-linejoin: round; marker-end: url('#information-requirement-end-white-hsl_225_10_15_-3nqzhioty627fp7ti78c3nt54');" d="M300,240L490,180L490,160"/></g><path d="M300,240L490,180L490,160" class="djs-hit djs-hit-stroke" style="fill: none; stroke-opacity: 0; stroke: white; stroke-width: 15px;"/><rect x="295" y="155" rx="4" width="200" height="90" class="djs-outline" style="fill: none;"/></g></g><g class="djs-group"><g class="djs-element djs-connection" data-element-id="InformationRequirement_0j3iwu4" style="display: block;"><g class="djs-visual"><path style="fill: none; stroke: rgb(34, 36, 42); stroke-width: 1px; stroke-linecap: round; stroke-linejoin: round; marker-end: url('#information-requirement-end-white-hsl_225_10_15_-3nqzhioty627fp7ti78c3nt54');" d="M600,357L550,180L550,160"/></g><path d="M600,357L550,180L550,160" class="djs-hit djs-hit-stroke" style="fill: none; stroke-opacity: 0; stroke: white; stroke-width: 15px;"/><rect x="545" y="155" rx="4" width="60" height="207" class="djs-outline" style="fill: none;"/></g></g></svg>